<mxfile host="app.diagrams.net" agent="Mozilla/5.0 (Windows NT 10.0; Win64; x64) AppleWebKit/537.36 (KHTML, like Gecko) Chrome/127.0.0.0 Safari/537.36" version="24.7.6">
  <diagram id="C5RBs43oDa-KdzZeNtuy" name="Page-1">
    <mxGraphModel grid="1" page="1" gridSize="20" guides="1" tooltips="1" connect="1" arrows="1" fold="1" pageScale="1" pageWidth="827" pageHeight="1169" math="0" shadow="0">
      <root>
        <mxCell id="WIyWlLk6GJQsqaUBKTNV-0" />
        <mxCell id="WIyWlLk6GJQsqaUBKTNV-1" parent="WIyWlLk6GJQsqaUBKTNV-0" />
        <mxCell id="S3qi_xShl9xbgK6Wx-o3-0" value="&lt;span style=&quot;font-size: 22px;&quot;&gt;&lt;b&gt;START&lt;/b&gt;&lt;/span&gt;" style="ellipse;whiteSpace=wrap;html=1;" vertex="1" parent="WIyWlLk6GJQsqaUBKTNV-1">
          <mxGeometry x="320" y="80" width="180" height="50" as="geometry" />
        </mxCell>
        <mxCell id="S3qi_xShl9xbgK6Wx-o3-1" value="" style="endArrow=classic;html=1;rounded=0;exitX=0.5;exitY=1;exitDx=0;exitDy=0;" edge="1" parent="WIyWlLk6GJQsqaUBKTNV-1" source="S3qi_xShl9xbgK6Wx-o3-0">
          <mxGeometry width="50" height="50" relative="1" as="geometry">
            <mxPoint x="410" y="140" as="sourcePoint" />
            <mxPoint x="410" y="170" as="targetPoint" />
          </mxGeometry>
        </mxCell>
        <mxCell id="S3qi_xShl9xbgK6Wx-o3-2" value="&lt;font style=&quot;font-size: 12px;&quot;&gt;element present?&lt;/font&gt;" style="rhombus;whiteSpace=wrap;html=1;" vertex="1" parent="WIyWlLk6GJQsqaUBKTNV-1">
          <mxGeometry x="330" y="170" width="160" height="80" as="geometry" />
        </mxCell>
        <mxCell id="S3qi_xShl9xbgK6Wx-o3-4" value="" style="endArrow=classic;html=1;rounded=0;exitX=0.5;exitY=1;exitDx=0;exitDy=0;" edge="1" parent="WIyWlLk6GJQsqaUBKTNV-1" source="S3qi_xShl9xbgK6Wx-o3-2">
          <mxGeometry width="50" height="50" relative="1" as="geometry">
            <mxPoint x="390" y="320" as="sourcePoint" />
            <mxPoint x="410" y="290" as="targetPoint" />
          </mxGeometry>
        </mxCell>
        <mxCell id="S3qi_xShl9xbgK6Wx-o3-5" value="" style="swimlane;startSize=0;fontStyle=0" vertex="1" parent="WIyWlLk6GJQsqaUBKTNV-1">
          <mxGeometry x="310" y="290" width="200" height="60" as="geometry" />
        </mxCell>
        <mxCell id="S3qi_xShl9xbgK6Wx-o3-6" value="" style="endArrow=classic;html=1;rounded=0;" edge="1" parent="S3qi_xShl9xbgK6Wx-o3-5">
          <mxGeometry width="50" height="50" relative="1" as="geometry">
            <mxPoint x="100" y="60" as="sourcePoint" />
            <mxPoint x="100" y="100" as="targetPoint" />
          </mxGeometry>
        </mxCell>
        <mxCell id="S3qi_xShl9xbgK6Wx-o3-20" value="Search element for next position" style="text;html=1;align=center;verticalAlign=middle;whiteSpace=wrap;rounded=0;" vertex="1" parent="S3qi_xShl9xbgK6Wx-o3-5">
          <mxGeometry x="40" y="15" width="120" height="30" as="geometry" />
        </mxCell>
        <mxCell id="S3qi_xShl9xbgK6Wx-o3-7" value="" style="rhombus;whiteSpace=wrap;html=1;" vertex="1" parent="WIyWlLk6GJQsqaUBKTNV-1">
          <mxGeometry x="320" y="390" width="180" height="80" as="geometry" />
        </mxCell>
        <mxCell id="S3qi_xShl9xbgK6Wx-o3-9" value="" style="endArrow=classic;html=1;rounded=0;" edge="1" parent="WIyWlLk6GJQsqaUBKTNV-1">
          <mxGeometry width="50" height="50" relative="1" as="geometry">
            <mxPoint x="409.5" y="470" as="sourcePoint" />
            <mxPoint x="410" y="510" as="targetPoint" />
          </mxGeometry>
        </mxCell>
        <mxCell id="S3qi_xShl9xbgK6Wx-o3-10" value="" style="swimlane;startSize=0;" vertex="1" parent="WIyWlLk6GJQsqaUBKTNV-1">
          <mxGeometry x="310" y="510" width="200" height="70" as="geometry" />
        </mxCell>
        <mxCell id="S3qi_xShl9xbgK6Wx-o3-13" value="" style="endArrow=classic;html=1;rounded=0;entryX=0.256;entryY=0.038;entryDx=0;entryDy=0;entryPerimeter=0;" edge="1" parent="S3qi_xShl9xbgK6Wx-o3-10" target="S3qi_xShl9xbgK6Wx-o3-12">
          <mxGeometry width="50" height="50" relative="1" as="geometry">
            <mxPoint x="100" y="70" as="sourcePoint" />
            <mxPoint x="150" y="20" as="targetPoint" />
          </mxGeometry>
        </mxCell>
        <mxCell id="S3qi_xShl9xbgK6Wx-o3-22" value="Element found" style="text;html=1;align=center;verticalAlign=middle;whiteSpace=wrap;rounded=0;" vertex="1" parent="S3qi_xShl9xbgK6Wx-o3-10">
          <mxGeometry x="70" y="20" width="60" height="30" as="geometry" />
        </mxCell>
        <mxCell id="S3qi_xShl9xbgK6Wx-o3-11" value="" style="swimlane;startSize=0;fontStyle=0" vertex="1" parent="WIyWlLk6GJQsqaUBKTNV-1">
          <mxGeometry x="520" y="510" width="200" height="70" as="geometry" />
        </mxCell>
        <mxCell id="S3qi_xShl9xbgK6Wx-o3-14" value="" style="endArrow=classic;html=1;rounded=0;entryX=0.746;entryY=0.048;entryDx=0;entryDy=0;entryPerimeter=0;" edge="1" parent="S3qi_xShl9xbgK6Wx-o3-11" target="S3qi_xShl9xbgK6Wx-o3-12">
          <mxGeometry width="50" height="50" relative="1" as="geometry">
            <mxPoint x="100" y="70" as="sourcePoint" />
            <mxPoint x="90" y="60" as="targetPoint" />
          </mxGeometry>
        </mxCell>
        <mxCell id="S3qi_xShl9xbgK6Wx-o3-24" value="Element not found" style="text;html=1;align=center;verticalAlign=middle;whiteSpace=wrap;rounded=0;" vertex="1" parent="S3qi_xShl9xbgK6Wx-o3-11">
          <mxGeometry x="70" y="20" width="60" height="30" as="geometry" />
        </mxCell>
        <mxCell id="S3qi_xShl9xbgK6Wx-o3-12" value="&lt;b&gt;&lt;font style=&quot;font-size: 20px;&quot;&gt;STOP&lt;/font&gt;&lt;/b&gt;" style="ellipse;whiteSpace=wrap;html=1;" vertex="1" parent="WIyWlLk6GJQsqaUBKTNV-1">
          <mxGeometry x="400" y="610" width="230" height="80" as="geometry" />
        </mxCell>
        <mxCell id="S3qi_xShl9xbgK6Wx-o3-15" value="" style="endArrow=none;html=1;rounded=0;entryX=0;entryY=0.5;entryDx=0;entryDy=0;" edge="1" parent="WIyWlLk6GJQsqaUBKTNV-1" target="S3qi_xShl9xbgK6Wx-o3-2">
          <mxGeometry width="50" height="50" relative="1" as="geometry">
            <mxPoint x="260" y="210" as="sourcePoint" />
            <mxPoint x="440" y="220" as="targetPoint" />
          </mxGeometry>
        </mxCell>
        <mxCell id="S3qi_xShl9xbgK6Wx-o3-16" value="" style="endArrow=none;html=1;rounded=0;" edge="1" parent="WIyWlLk6GJQsqaUBKTNV-1">
          <mxGeometry width="50" height="50" relative="1" as="geometry">
            <mxPoint x="260" y="430" as="sourcePoint" />
            <mxPoint x="260" y="210" as="targetPoint" />
          </mxGeometry>
        </mxCell>
        <mxCell id="S3qi_xShl9xbgK6Wx-o3-17" value="" style="endArrow=classic;html=1;rounded=0;entryX=0;entryY=0.5;entryDx=0;entryDy=0;" edge="1" parent="WIyWlLk6GJQsqaUBKTNV-1" target="S3qi_xShl9xbgK6Wx-o3-7">
          <mxGeometry width="50" height="50" relative="1" as="geometry">
            <mxPoint x="260" y="430" as="sourcePoint" />
            <mxPoint x="310" y="380" as="targetPoint" />
          </mxGeometry>
        </mxCell>
        <mxCell id="S3qi_xShl9xbgK6Wx-o3-18" value="" style="endArrow=none;html=1;rounded=0;" edge="1" parent="WIyWlLk6GJQsqaUBKTNV-1">
          <mxGeometry width="50" height="50" relative="1" as="geometry">
            <mxPoint x="490" y="210" as="sourcePoint" />
            <mxPoint x="610" y="210" as="targetPoint" />
          </mxGeometry>
        </mxCell>
        <mxCell id="S3qi_xShl9xbgK6Wx-o3-19" value="" style="endArrow=classic;html=1;rounded=0;entryX=0.454;entryY=-0.003;entryDx=0;entryDy=0;entryPerimeter=0;" edge="1" parent="WIyWlLk6GJQsqaUBKTNV-1" target="S3qi_xShl9xbgK6Wx-o3-11">
          <mxGeometry width="50" height="50" relative="1" as="geometry">
            <mxPoint x="610" y="210" as="sourcePoint" />
            <mxPoint x="660" y="160" as="targetPoint" />
          </mxGeometry>
        </mxCell>
        <mxCell id="S3qi_xShl9xbgK6Wx-o3-21" value="ELEMENT FOUND?" style="text;html=1;align=center;verticalAlign=middle;whiteSpace=wrap;rounded=0;" vertex="1" parent="WIyWlLk6GJQsqaUBKTNV-1">
          <mxGeometry x="380" y="415" width="60" height="30" as="geometry" />
        </mxCell>
      </root>
    </mxGraphModel>
  </diagram>
</mxfile>
